<svg viewBox="0 0 22 22" xmlns="http://www.w3.org/2000/svg" xmlns:xlink="http://www.w3.org/1999/xlink">
  <defs>
    <circle id="avatar_a" cx="11" cy="11" r="11"/>
  </defs>
  <g fill="none" fill-rule="evenodd">
    <mask id="avatar_b" fill="#ffffff">
      <use xlink:href="#avatar_a"/>
    </mask>
    <use fill="none" xlink:href="#avatar_a"/>
    <g mask="url(#avatar_b)">
      <path d="M3 19.605c0-4.127 3.35-7.473 7.48-7.473h.833c4.132 0 7.48 3.354 7.48 7.473v7.473H3v-7.473z" fill="#4A4A4A"/>
      <path d="M4.373 19.605v7.473L3 25.705h15.794l-1.373 1.373v-7.473c0-3.364-2.736-6.1-6.107-6.1h-.832a6.104 6.104 0 0 0-6.107 6.1z" fill="#DADADA"/>
      <path d="M13.56 14.567l-.618.237s1.222-.18 2.35 2.32c1.13 2.5 1.13 8.514 1.13 8.514l1.368.16s-.39-4.41-.39-6.856c0-.81-.86-2.638-1.282-3.132-.853-1-1.976-1.623-1.976-1.623l-.58.38z" fill-opacity=".15" fill="#000"/>
      <path d="M11.093 15.17c3.038 0 5.482-2.608 5.482-5.803 0-3.196-2.444-5.804-5.482-5.804-3.038 0-5.482 2.608-5.482 5.804 0 3.195 2.445 5.803 5.483 5.803z" fill="#4A4A4A"/>
      <path d="M11.093 13.797c-2.26 0-4.11-1.974-4.11-4.43 0-2.457 1.85-4.43 4.11-4.43 2.26 0 4.11 1.973 4.11 4.43 0 2.456-1.85 4.43-4.11 4.43z" fill="#ECECEC"/>
      <path d="M12.11 5.745s2.314.11 2.314 3.556-2.313 3.65-2.313 3.65 3.03-.467 3.03-3.65c0-3.182-3.03-3.555-3.03-3.555z" fill-opacity=".15" fill="#000"/>
    </g>
  </g>
</svg>
